IKResults
version=1
nRows=14
nColumns=40
inDegrees=yes

Units are S.I. units (second, meters, Newtons, ...)
Angles are in degrees.

endheader
time	pelvis_tilt	pelvis_list	pelvis_rotation	pelvis_tx	pelvis_ty	pelvis_tz	hip_flexion_r	hip_adduction_r	hip_rotation_r	knee_angle_r	knee_angle_r_beta	ankle_angle_r	subtalar_angle_r	mtp_angle_r	hip_flexion_l	hip_adduction_l	hip_rotation_l	knee_angle_l	knee_angle_l_beta	ankle_angle_l	subtalar_angle_l	mtp_angle_l	lumbar_extension	lumbar_bending	lumbar_rotation	arm_flex_r	arm_add_r	arm_rot_r	elbow_flex_r	pro_sup_r	wrist_flex_r	wrist_dev_r	arm_flex_l	arm_add_l	arm_rot_l	elbow_flex_l	pro_sup_l	wrist_flex_l	wrist_dev_l
      1.63000000	     16.94633088	     -3.29754020	     -2.66106422	     -0.26763410	      0.95008581	      1.00780841	      1.79625998	     -0.97070410	    -14.63476821	    -26.10621721	     -0.45563945	      0.98791288	      1.74559946	    -12.71360348	    -21.22786393	     -0.40459654	     15.97392569	    -11.11982791	     -0.19407761	     11.45501735	      0.39706500	     -4.47798729	    -24.11206394	     -0.16883266	     -1.55679031	     -2.44981976	    -11.18243426	      4.12675083	     27.09660149	     89.95437384	      0.00000000	      0.00000000	      9.75413420	     10.13467901	      9.19386271	     33.48174042	     89.95437384	      0.00000000	      0.00000000
      1.64000000	     17.15803977	     -3.41678460	     -2.40162081	     -0.26060088	      0.94927007	      1.00879320	      1.84006346	      0.48140180	    -10.54880711	    -25.03413439	     -0.43692807	      0.64726642	     -3.83887475	    -10.47746507	    -21.90657201	     -0.11102893	     16.07226579	    -11.19064065	     -0.19531352	     11.65371455	      0.16464897	     -4.68140199	    -24.04882145	     -0.12106473	     -1.71640212	     -2.88903759	    -11.00389060	      3.89992766	     27.21821969	     89.95437384	      0.00000000	      0.00000000	      9.60023293	     10.55339637	      8.65360640	     34.17120925	     89.95437384	      0.00000000	      0.00000000
      1.65000000	     16.88642481	     -3.32506172	     -2.60519106	     -0.25555594	      0.94831201	      1.00894305	      2.59638298	      0.43324604	    -11.04650061	    -24.14620223	     -0.42143073	      0.55821270	     -3.51834553	    -10.28919965	    -21.85795485	     -0.30093478	     16.15945153	    -11.39732719	     -0.19892089	     11.83701920	      0.18945621	     -4.64754124	    -23.76166567	     -0.27450755	     -1.59316313	     -2.98439564	    -11.01519409	      3.89033094	     27.20338362	     89.95437384	      0.00000000	      0.00000000	      9.81641662	     10.57844229	      8.71121538	     34.45896728	     89.95437384	      0.00000000	      0.00000000
      1.66000000	     16.62974563	     -3.32020843	     -2.71439026	     -0.25034818	      0.94736964	      1.00902726	      3.18799667	      0.49979183	    -11.62677467	    -23.07060848	     -0.40265808	      0.46502524	     -3.03338675	    -10.15522371	    -21.84270646	     -0.35253440	     16.21741333	    -11.53756211	     -0.20136845	     12.15837981	      0.24369870	     -4.64050902	    -23.49089859	     -0.29962465	     -1.55152287	     -3.05823506	    -11.01701586	      3.83813697	     27.15297929	     89.95437384	      0.00000000	      0.00000000	      9.96578723	     10.63332463	      8.76224509	     34.73503834	     89.95437384	      0.00000000	      0.00000000
      1.67000000	     16.96991151	     -3.93404180	     -1.96263665	     -0.24481683	      0.94750490	      1.00875071	      2.48285009	      1.27235008	    -13.08770835	    -20.95789129	     -0.36578421	     -0.00641795	     -0.99329432	    -10.09269878	    -22.33656412	      0.60282578	     15.66317159	    -12.08949907	     -0.21100156	     12.80302902	      0.52286202	     -4.78008445	    -23.88823082	      0.53018683	     -2.07730012	     -3.07320611	    -10.91257066	      3.53779649	     27.12725165	     89.95437384	      0.00000000	      0.00000000	     10.12775253	     10.76188818	      8.80211603	     34.99876163	     89.95437384	      0.00000000	      0.00000000
      1.68000000	     16.76183592	     -3.84216832	     -2.09078252	     -0.23945214	      0.94653298	      1.00889538	      3.07675391	      1.22151339	    -13.78369885	    -20.18392985	     -0.35227603	      0.17474803	     -0.82070766	     -9.99166728	    -22.42410841	      0.44293616	     15.73693396	    -12.16265584	     -0.21227839	     12.97103975	      0.53106484	     -4.77707121	    -23.65519299	      0.41297412	     -2.02809024	     -3.18845636	    -10.93435105	      3.53099737	     27.12875827	     89.95437384	      0.00000000	      0.00000000	     10.29223831	     10.82793213	      8.79300864	     35.09975313	     89.95437384	      0.00000000	      0.00000000
      1.69000000	     17.06191448	     -4.21485932	     -1.41801070	     -0.23366357	      0.94644158	      1.00844180	      2.52406649	      1.67706532	    -15.43979091	    -18.44405039	     -0.32190941	      0.01551012	      1.00367892	    -10.00741760	    -22.99690787	      1.07491668	     15.09498658	    -12.43211680	     -0.21698137	     13.26627959	      0.59563350	     -4.94835499	    -23.94885412	      1.00941955	     -2.52853347	     -3.34976257	    -10.91529883	      3.41935157	     27.23908059	     89.95437384	      0.00000000	      0.00000000	     10.46999354	     10.86776844	      8.87302120	     35.15111573	     89.95437384	      0.00000000	      0.00000000
      1.70000000	     16.87767972	     -4.12720455	     -1.51289461	     -0.22826088	      0.94543844	      1.00864710	      3.03155107	      1.64726859	    -16.13220509	    -17.71412819	     -0.30916986	      0.12297766	      1.24832234	     -9.92921354	    -23.13362734	      0.94648318	     15.15585295	    -12.49024285	     -0.21799586	     13.45720750	      0.61837880	     -4.95659001	    -23.75405595	      0.89485409	     -2.52324029	     -3.44392045	    -10.91116768	      3.41229934	     27.22311089	     89.95437384	      0.00000000	      0.00000000	     10.58688266	     10.96504307	      8.79441242	     35.23621350	     89.95437384	      0.00000000	      0.00000000
      1.71000000	     17.01503251	     -4.36090621	     -1.02757363	     -0.22256393	      0.94507120	      1.00840140	      2.69599326	      2.00750254	    -17.36604124	    -16.15990297	     -0.28204351	     -0.11603438	      2.77839745	     -9.98236004	    -23.52520538	      1.37444815	     14.61809921	    -12.78041870	     -0.22306039	     13.80477374	      0.68057245	     -5.06432442	    -23.88343797	      1.30319175	     -2.86533679	     -3.55554277	    -10.87702573	      3.23547943	     27.24219093	     89.95437384	      0.00000000	      0.00000000	     10.80157512	     11.02152324	      8.70074660	     35.02984742	     89.95437384	      0.00000000	      0.00000000
      1.72000000	     17.29974010	     -4.50511193	     -0.60792186	     -0.21662886	      0.94474947	      1.00815609	      2.43858510	      2.08738450	    -19.40630395	    -15.29911026	     -0.26701985	     -0.12566974	      4.75763501	    -10.12133114	    -24.20691896	      1.67410066	     14.37734578	    -12.79003572	     -0.22322823	     13.85785845	      0.73416254	     -5.25793774	    -24.16670802	      1.60051427	     -3.17367424	     -3.73882806	    -10.86676295	      3.04386460	     27.37948486	     89.95437384	      0.00000000	      0.00000000	     10.81876172	     11.09903203	      8.64677853	     35.17060214	     89.95437384	      0.00000000	      0.00000000
      1.73000000	     17.16222086	     -4.52618845	     -0.51438253	     -0.21109275	      0.94383001	      1.00829614	      2.67077385	      2.23247095	    -19.96363562	    -14.44850436	     -0.25217397	      0.10314630	      5.55515771	    -10.17037227	    -24.34131065	      1.75142813	     14.17145533	    -12.98530625	     -0.22663635	     14.16769782	      0.74467985	     -5.33648220	    -24.02607387	      1.67035870	     -3.24501449	     -3.81210470	    -10.85254092	      2.98939257	     27.31127904	     89.95437384	      0.00000000	      0.00000000	     11.00599528	     11.09029688	      8.70955105	     34.88811975	     89.95437384	      0.00000000	      0.00000000
      1.74000000	     16.97871091	     -4.43885559	     -0.63831156	     -0.20579854	      0.94280904	      1.00882101	      3.16740568	      2.22677100	    -20.32760521	    -14.13524744	     -0.24670661	      0.28063446	      5.50636871	    -10.09132048	    -24.43746127	      1.65363334	     14.23800086	    -13.14377231	     -0.22940210	     14.24326017	      0.76349204	     -5.30847732	    -23.89900814	      1.53965245	     -3.22276270	     -3.85231933	    -10.81540635	      2.99237507	     27.33955277	     89.95437384	      0.00000000	      0.00000000	     11.05840534	     11.17793719	      8.75763979	     34.86015815	     89.95437384	      0.00000000	      0.00000000
      1.75000000	     16.95367355	     -4.56199953	     -0.24580345	     -0.19988494	      0.94210853	      1.00854873	      3.01658226	      2.50878351	    -20.92335960	    -13.10727717	     -0.22876514	      0.61669526	      6.19228300	    -10.21155514	    -24.77857603	      1.94242662	     14.00084865	    -13.13030524	     -0.22916706	     14.62543889	      0.71498998	     -5.41341525	    -23.81435678	      1.84134267	     -3.44963285	     -3.92568866	    -10.80711240	      2.88702308	     27.11780715	     89.95437384	      0.00000000	      0.00000000	     11.33187883	     11.04682025	      8.93378869	     34.28805397	     89.95437384	      0.00000000	      0.00000000
      1.76000000	     16.80259860	     -4.49129752	     -0.25159876	     -0.19426551	      0.94116448	      1.00895672	      3.42113525	      2.50259886	    -21.07119393	    -12.97896768	     -0.22652572	      0.73829703	      6.13165123	    -10.11466097	    -24.89594690	      1.91412905	     13.95949337	    -13.38603628	     -0.23363041	     14.59641564	      0.71998081	     -5.37478715	    -23.68618089	      1.77756945	     -3.51067573	     -4.03044413	    -10.77309006	      2.85070690	     27.19239078	     89.95437384	      0.00000000	      0.00000000	     11.30015937	     11.10559543	      8.98610922	     34.25451707	     89.95437384	      0.00000000	      0.00000000
